<?xml version="1.0" encoding="utf-8"?>
<!-- Generator: Adobe Illustrator 24.2.3, SVG Export Plug-In . SVG Version: 6.00 Build 0)  -->
<svg version="1.1" id="Layer_1" xmlns="http://www.w3.org/2000/svg" xmlns:xlink="http://www.w3.org/1999/xlink" x="0px" y="0px"
	 viewBox="0 0 1080 1350" style="enable-background:new 0 0 1080 1350;" xml:space="preserve">
<style type="text/css">
	.st0{fill:#FDFDFD;}
	.st1{fill:#343434;}
	.st2{fill:#353535;}
	.st3{fill:#F9F9F9;}
	.st4{fill:#FAFAFA;}
	.st5{fill:#219BEF;}
	.st6{fill:#0B4B9E;}
	.st7{fill:#1F9AEF;}
	.st8{fill:#0D499C;}
	.st9{fill:#1D99EF;}
</style>
<g>
	<g>
		<path class="st0" d="M193.8,951.37c5.98-8.18,11.51-8.18,17.48,0C205.45,951.37,199.63,951.37,193.8,951.37z"/>
		<path class="st1" d="M304.29,834.2c-21.52,9.38-44.21,11.87-67.36,10.92c-6.59-0.27-9.54,1.2-10.86,8.37
			c-3.66,19.9-8.43,39.6-12.84,59.71c-23.37,0-46.22,0-70.24,0c14.58-68.5,29.09-136.68,43.84-206.03c4.08,0,8.19-0.08,12.3,0.01
			c31.67,0.69,63.35,1.06,94.99,2.37c7.86,0.32,15.86,3,23.33,5.83c17.46,6.59,26.6,19.89,27.82,38.28
			c2.13,31.96-6.64,59.21-34.99,77.61C308.29,832.25,306.29,833.23,304.29,834.2z M252.88,729.77c-6.8,31.6-13.51,62.83-20.25,94.15
			c23.44,2.42,31.37-1,39.28-21.71c5.53-14.48,9.25-30.12,10.78-45.53C285.14,731.85,279.37,727.35,252.88,729.77z"/>
		<path class="st2" d="M499.91,849.04c2.73-44.84,32.86-75.05,79.63-77.29c19.11-0.92,38.78,0.57,57.54,4.25
			c18.32,3.59,29.45,16.85,34.04,35.6c9.42,38.47-8.28,79.81-40.89,94.23c-19.39,8.57-39.9,10.79-60.63,9.73
			c-12.12-0.62-24.79-2.06-36.02-6.27C509.47,900.26,498.12,878.32,499.91,849.04z M564.57,870.56c0.36,3.39,0.05,8.13,1.52,12.24
			c1.38,3.85,4.28,9.52,7.16,9.94c4.35,0.63,9.54-2.1,13.83-4.4c2.28-1.22,3.75-4.38,5.05-6.93c12.58-24.85,15.75-51.54,14.18-78.81
			c-0.61-10.56-9.51-13.65-17.92-6.98c-2.94,2.33-5.33,5.63-7.27,8.9C569.26,824.51,566.66,846.88,564.57,870.56z"/>
		<path class="st2" d="M784.61,773.59c11.66,0,21.96,0,33.56,0c-1.25,7.43-2.38,14.18-3.7,22.03c-9,0-17.67,0.32-26.3-0.11
			c-6.24-0.31-8.84,1.51-10.17,8.12c-7.39,36.55-15.43,72.98-23.28,109.6c-22.02,0-43.57,0-66.3,0
			c8.27-39.19,16.41-77.73,24.82-117.55c-8.74,0-16.31,0-25.17,0c1.81-8.1,3.32-14.88,4.89-21.95c8.31,0,16.04,0,24.69,0
			c1.53-6.3,3.01-12.42,4.5-18.54c9.91-40.72,38.16-64.17,80.25-64.91c16.93-0.3,33.91,2.14,51.87,3.4
			c-1.97,10.13-3.48,17.92-5.2,26.76c-8.31-0.41-16.48-1.01-24.65-1.18c-22.39-0.48-29.41,5.06-34.17,26.82
			C788.33,754.83,786.64,763.64,784.61,773.59z"/>
		<path class="st2" d="M957.1,914.15c-15.56-0.17-31.11-0.33-46.67-0.5c-12.86,2.66-20.12-3-24.78-14.85
			c-3.74-9.49-9.4-18.23-14.89-28.6c-12.46,12.68-24.4,24.43-35.82,36.66c-4.81,5.15-9.84,7.48-16.94,6.96
			c-8.27-0.6-16.62-0.14-24.15-0.14c21.09-22.5,42.12-44.94,63.81-68.07c-11.81-22.49-24.33-46.34-37.8-72
			c14.52,0,27.73,1.42,40.5-0.32c21.08-2.86,35.12,3.37,41.2,24.58c1.12,3.92,3.88,7.38,6.67,12.51
			c9.08-9.73,18.13-18.74,26.33-28.46c5.21-6.18,10.66-9.33,19.01-8.48c7.88,0.8,15.91,0.17,26.18,0.17
			c-6.46,6.77-11.41,12.06-16.46,17.24c-12.39,12.72-24.76,25.48-37.3,38.05c-3.22,3.23-5.19,5.7-2.41,10.65
			c9.62,17.1,18.69,34.5,27.96,51.79c2.73,5.42,5.24,10.97,8.28,16.21C962.03,911.37,961.64,913.43,957.1,914.15z"/>
		<path class="st2" d="M343.36,872.02c6.46-29.52,12.91-59.04,19.38-88.55c0.69-3.13,1.47-6.24,2.33-9.85
			c16.07,0,31.89-0.2,47.7,0.24c2.12,0.06,5.27,3.05,6,5.31c1.95,5.99,2.84,12.31,4.39,19.66c7.04-6.99,12.44-14.02,19.37-18.9
			c15.89-11.18,33.48-12.66,51.42-5.13c2.3,0.97,5.06,5.35,4.63,7.59c-3.9,20.49-8.46,40.86-12.91,61.67c-12.03,0-23.47,0-35.05,0
			c-0.9-7.71-1.31-15.12-2.73-22.34c-1.24-6.35-3.24-13.43-11.74-12.85c-7.58,0.52-13.27,4.32-14.99,12.66
			c-5.08,24.57-10.39,49.09-15.64,73.62c-1.27,5.95-2.66,11.87-4.06,18.1c-22.01,0-43.56,0-65.78,0c1.32-8.15,2.58-15.98,3.84-23.81
			C340.81,883.64,342.09,877.83,343.36,872.02z"/>
		<path class="st3" d="M252.88,729.77c26.49-2.42,32.25,2.08,29.8,26.91c-1.52,15.42-5.25,31.05-10.78,45.53
			c-7.91,20.71-15.83,24.13-39.28,21.71C239.37,792.6,246.09,761.37,252.88,729.77z"/>
		<path class="st4" d="M564.57,870.56c2.09-23.67,4.68-46.04,16.55-66.05c1.94-3.27,4.33-6.56,7.27-8.9
			c8.41-6.67,17.32-3.58,17.92,6.98c1.57,27.27-1.6,53.96-14.18,78.81c-1.29,2.56-2.77,5.71-5.05,6.93c-4.3,2.3-9.48,5.03-13.83,4.4
			c-2.88-0.42-5.78-6.09-7.16-9.94C564.63,878.68,564.93,873.94,564.57,870.56z"/>
	</g>
	<g>
		<path class="st5" d="M715.28,537.19c-15.8,0-30.02,0.42-44.18-0.33c-3.15-0.17-7.1-3.85-8.94-6.95
			c-16.31-27.46-32.35-55.08-48.13-82.85c-2.93-5.16-6.21-7.13-12.2-7.08c-31.39,0.29-62.79-0.04-94.18,0.28
			c-6.95,0.07-11.4-1.8-14.72-8.17c-5.95-11.41-12.68-22.42-19.59-34.47c2.86-0.41,4.91-0.97,6.96-0.97
			c48.55-0.05,97.1-0.2,145.64,0.24c4.3,0.04,10.52,2.76,12.54,6.18c25.14,42.48,49.67,85.31,74.32,128.07
			C713.57,532.45,713.98,533.96,715.28,537.19z"/>
		<path class="st6" d="M545.6,550.21c55.91,0.06,111.82,0.1,167.74,0.2c3.53,0.01,7.06,0.39,10.59,0.59
			c-0.66,1.81-1.33,3.63-1.99,5.44c-3.93,6.91-7.85,13.81-11.78,20.72c-2.11,3.43-4.22,6.86-6.33,10.29
			c-1.91,2.48-3.82,4.95-5.73,7.43c-4.26,0.16-8.53,0.31-12.79,0.47c-8.42-0.02-16.85-0.03-25.27-0.05
			c-2.66-0.02-5.32-0.05-7.97-0.07c-38.95-0.11-77.9-0.17-116.85-0.39c-4.44-0.03-8.88-0.96-13.31-1.47
			C529.81,578.99,537.7,564.6,545.6,550.21z"/>
		<path class="st7" d="M545.6,550.21c-7.9,14.39-15.79,28.77-23.69,43.16c-4.86-7.45-10.04-14.72-14.52-22.39
			c-23.9-40.93-47.52-82.03-71.55-122.88c-3.55-6.03-3.96-10.7-0.09-16.74c7.08-11.05,13.34-22.63,21.07-35.95
			C487.07,448.15,516.34,499.18,545.6,550.21z"/>
		<path class="st8" d="M487.27,649.79c-7.85-12.89-15.92-25.65-23.51-38.7c-20.43-35.09-40.5-70.38-61.08-105.38
			c-3.57-6.08-3.88-10.8-0.07-16.78c6.89-10.82,13.07-22.09,20.72-35.17c30.27,52.59,59.7,103.73,89.13,154.86
			C504.05,622.34,495.66,636.07,487.27,649.79z"/>
		<path class="st9" d="M487.27,649.79c8.39-13.72,16.78-27.45,25.17-41.17c45.23-0.17,90.46-0.34,135.69-0.51
			c2.69,0.01,5.38,0.02,8.07,0.03c10.98,0,21.96,0,34.5,0c-5.98,11.29-10.75,20.27-15.51,29.26c-1.89,3.35-3.78,6.69-5.67,10.04
			c-3.32,1.33-6.6,3.66-9.97,3.8c-12.8,0.55-25.62,0.38-38.44,0.49c-4.55,0.02-9.1,0.04-13.65,0.05
			c-36.72-0.12-73.44-0.2-110.15-0.43C493.97,651.33,490.62,650.33,487.27,649.79z"/>
	</g>
</g>
</svg>
